<?xml version="1.0" encoding="utf-8"?>
<!-- Generator: Adobe Illustrator 17.0.2, SVG Export Plug-In . SVG Version: 6.00 Build 0)  -->
<!DOCTYPE svg PUBLIC "-//W3C//DTD SVG 1.1//EN" "http://www.w3.org/Graphics/SVG/1.1/DTD/svg11.dtd">
<svg version="1.1" id="Layer_1" xmlns="http://www.w3.org/2000/svg" xmlns:xlink="http://www.w3.org/1999/xlink" x="0px" y="0px"
	 width="62px" height="107px" viewBox="0 0 62 107" enable-background="new 0 0 62 107" xml:space="preserve">
<path id="Facebook" fill="#4E4E4E" d="M21.078,29.431c0,2.267,0,12.391,0,12.391H12v15.152h9.078V102h18.649V56.975h12.513
	c0,0,1.172-7.265,1.74-15.209c-1.629,0-14.183,0-14.183,0s0-8.815,0-10.36c0-1.548,2.033-3.631,4.043-3.631c2.006,0,6.239,0,10.16,0
	c0-2.063,0-9.191,0-15.774c-5.235,0-11.189,0-13.814,0C20.617,12,21.078,27.167,21.078,29.431z"/>
</svg>
