<?xml version="1.0" encoding="utf-8"?>
<!-- Generator: Adobe Illustrator 17.0.2, SVG Export Plug-In . SVG Version: 6.00 Build 0)  -->
<!DOCTYPE svg PUBLIC "-//W3C//DTD SVG 1.1//EN" "http://www.w3.org/Graphics/SVG/1.1/DTD/svg11.dtd">
<svg version="1.1" id="Layer_1" xmlns="http://www.w3.org/2000/svg" xmlns:xlink="http://www.w3.org/1999/xlink" x="0px" y="0px"
	 width="72px" height="72px" viewBox="0 0 72 72" enable-background="new 0 0 72 72" xml:space="preserve">
<path id="Facebook" fill="#4E4E4E" d="M26.491,14.01c0,1.808,0,9.883,0,9.883H19.25v12.086h7.241v35.914h14.875V35.98h9.981
	c0,0,0.935-5.795,1.388-12.131c-1.299,0-11.313,0-11.313,0s0-7.031,0-8.263c0-1.235,1.622-2.896,3.225-2.896c1.6,0,4.976,0,8.104,0
	c0-1.645,0-7.331,0-12.582c-4.176,0-8.925,0-11.018,0C26.123,0.107,26.491,12.204,26.491,14.01z"/>
</svg>
