<?xml version="1.0" encoding="utf-8"?>
<!-- Generator: Adobe Illustrator 17.0.2, SVG Export Plug-In . SVG Version: 6.00 Build 0)  -->
<!DOCTYPE svg PUBLIC "-//W3C//DTD SVG 1.1//EN" "http://www.w3.org/Graphics/SVG/1.1/DTD/svg11.dtd">
<svg version="1.1" id="Layer_1" xmlns="http://www.w3.org/2000/svg" xmlns:xlink="http://www.w3.org/1999/xlink" x="0px" y="0px"
	 width="72px" height="72px" viewBox="0 0 72 72" enable-background="new 0 0 72 72" xml:space="preserve">
<g>
	<path fill="#4E4E4E" d="M21.454,68.501C6.598,62.317-4.308,44.435,1.665,25.159C7.534,6.217,27.419-4.236,46.42,1.63
		c18.948,5.851,29.549,25.935,23.512,44.963C63.84,65.798,43.716,75.542,25.649,70.08c3.716-5.145,4.406-11.336,6.109-17.202
		c0.084,0.029,0.18,0.032,0.217,0.079c2.562,3.351,6.076,4.407,10.093,4.05c6.098-0.541,10.621-3.69,13.727-8.835
		c3.51-5.816,4.779-12.206,3.704-18.883c-1.084-6.74-5.076-11.54-11.084-14.641c-5.37-2.772-11.09-3.102-16.94-2.078
		c-5.827,1.019-10.854,3.583-14.638,8.189c-5.098,6.205-6.654,13.177-3.927,20.874c0.97,2.739,2.776,4.846,5.41,6.171
		c1.518,0.763,2.122,0.479,2.546-1.171c0.221-0.86,0.424-1.726,0.651-2.584c0.127-0.48,0.059-0.923-0.247-1.299
		c-3.761-4.618-3.296-9.66-1.108-14.626c2.722-6.18,7.784-9.289,14.436-9.881c2.463-0.219,4.902-0.015,7.279,0.718
		c5.335,1.645,8.727,5.742,9.141,11.505c0.368,5.107-0.484,10.056-2.963,14.62c-1.249,2.298-2.912,4.211-5.406,5.242
		c-1.434,0.593-2.914,0.767-4.432,0.393c-3.191-0.786-4.857-3.683-4.047-6.977c0.804-3.269,2.015-6.424,2.745-9.714
		c0.27-1.215,0.42-2.437,0.281-3.69c-0.373-3.361-3.331-5.245-6.531-4.088c-2.562,0.926-3.901,2.969-4.632,5.449
		c-0.852,2.889-0.611,5.758,0.411,8.569c0.153,0.422,0.19,0.796,0.084,1.244c-1.552,6.551-3.096,13.103-4.608,19.663
		C21.37,63.559,21.399,65.994,21.454,68.501z"/>
</g>
</svg>
