<?xml version="1.0" encoding="utf-8"?>
<!-- Generator: Adobe Illustrator 17.0.2, SVG Export Plug-In . SVG Version: 6.00 Build 0)  -->
<!DOCTYPE svg PUBLIC "-//W3C//DTD SVG 1.1//EN" "http://www.w3.org/Graphics/SVG/1.1/DTD/svg11.dtd">
<svg version="1.1" id="Layer_1" xmlns="http://www.w3.org/2000/svg" xmlns:xlink="http://www.w3.org/1999/xlink" x="0px" y="0px"
	 width="88.374px" height="72px" viewBox="0 0 88.374 72" enable-background="new 0 0 88.374 72" xml:space="preserve">
<path id="Twitter_2_" fill="#4E4E4E" d="M88.374,8.503c-3.252,1.441-6.745,2.417-10.414,2.856c3.743-2.244,6.618-5.798,7.972-10.032
	c-3.503,2.078-7.383,3.587-11.514,4.399C71.112,2.203,66.399,0,61.185,0C51.172,0,43.053,8.118,43.053,18.131
	c0,1.422,0.16,2.806,0.47,4.133C28.454,21.507,15.094,14.288,6.152,3.32c-1.561,2.677-2.455,5.792-2.455,9.116
	c0,6.29,3.201,11.838,8.066,15.091c-2.972-0.095-5.768-0.909-8.211-2.268c-0.002,0.076-0.002,0.152-0.002,0.228
	c0,8.785,6.25,16.113,14.544,17.779c-1.521,0.413-3.123,0.637-4.777,0.637c-1.167,0-2.303-0.114-3.41-0.327
	c2.307,7.203,9.004,12.446,16.938,12.592C20.638,61.03,12.819,63.93,4.325,63.93c-1.464,0-2.907-0.087-4.325-0.254
	c8.023,5.143,17.554,8.146,27.793,8.146c33.349,0,51.587-27.628,51.587-51.588c0-0.786-0.017-1.567-0.053-2.346
	C82.87,15.331,85.944,12.138,88.374,8.503z"/>
</svg>
